Patient4_TMGait_0pt4_02_right_20_EMG.mot
version=1
nRows=37
nColumns=33
inDegrees=no
endheader
time	1LAddLong	2LGlutMax	3LGlutMed	4LIliopsoas	5LSemiMemb	6LBicFemLong	7LRecFem	8LVastMed	9LVastLat	10LGasMed	11LTibAnt	12lTibPost	13LPeroneusLong	14LSol	15LExtDigLong	16LFlexDigLong	17RAddLong	18RGlutMax	19RGlutMed	20RIliopsoas	21RSemiMemb	22RBicFemLong	23RRecFem	24RVastMed	25RVastLat	26RGasMed	27RTibAnt	28RTibPost	29RPeroneusLong	30RSol	31RExtDigLong	32RFlexDigLong
26.612	0.001678	-0.22553	-0.17914	0.00412	-0.007324	-0.018768	-0.029297	0.004425	0.070648	-0.029907	-0.068054	-0.008392	-0.056305	0.035706	-0.48325	-0.021057	-0.16373	-1.2633	0.66345	-0.002289	0.36865	-0.084534	0.45624	0.30182	0.002747	0.008545	0.00351	-0.006256	0.34012	-0.12085	-0.002441	-0.009155
26.613	-0.003967	-0.22781	-0.18173	0.004578	-0.010986	0.007935	0.094604	-0.001984	0.092316	-0.047913	-0.63873	-0.004578	0.022278	0.088654	-0.50552	-0.024719	-0.13534	-1.4114	0.49225	0.010529	0.20187	-0.02121	0.30228	0.39047	0.12161	0.013275	-0.03479	-0.006409	0.31342	-0.028992	-0.004425	-0.001984
26.614	-0.005188	-0.20691	-0.17288	0.021362	-0.005798	-0.003662	0.1384	-0.007477	0.091248	-0.021057	-0.28702	-0.013733	-0.043945	0.11322	0.18677	-0.027466	-0.11368	-1.4362	0.11826	0.028076	0.00473	0.13687	-0.10407	0.22705	0.45746	-0.005188	0.1297	-0.005798	-0.078125	0.015259	0.002289	-0.001526
26.615	-0.007935	-0.24277	-0.12741	0.030975	-0.006409	-0.015106	0.096588	-0.00061	0.076599	-0.005798	-0.089722	-0.005951	-0.053558	0.10727	0.4715	-0.016479	-0.10971	-1.5149	-0.040131	-0.040436	0.098572	0.046387	-0.03006	0.086823	0.61966	-0.002136	0.19852	-0.013275	-0.83542	0.027161	0.001221	-0.007629
26.616	-0.003662	-0.26459	-0.16769	0.026245	-0.006866	-0.00351	0.079346	0.009155	0.064087	-0.016937	-0.009766	-0.004272	0.046692	0.048676	0.021362	-0.010376	-0.058899	-1.5227	0.22156	-0.074463	0.025024	-0.040283	0.30792	-0.16296	0.45624	-0.012665	0.086823	-0.005341	-0.20187	0.004425	0	-0.001831
26.617	-0.004425	-0.26321	-0.19577	-0.023499	-0.004272	-0.008392	0.075073	0.016479	0.085754	-0.002441	0.020142	-0.016937	0.033112	0.031738	-0.016632	-0.010834	-0.036011	-1.5361	0.63126	0.015411	-0.03418	-0.005798	0.41	-0.16617	0.19226	-0.009155	0.039063	-0.000916	-0.50858	-0.14114	-0.001068	-0.004578
26.618	-0.008545	-0.31296	-0.10178	-0.010834	-0.01297	0.000153	0.09613	0.012665	0.086517	0.00473	0.20111	-0.002899	-0.043182	0.019379	-0.59509	0.010986	-0.014038	-1.6225	-0.35324	0.20844	0.025177	-0.014038	0.48523	-0.081177	-0.088501	-0.002899	-0.027313	-0.003204	0.4335	-0.2153	0.000763	-0.002441
26.619	-0.006561	-0.35736	-0.121	-0.005341	-0.003967	0.015717	0.11261	0.02243	0.078888	0.017242	0.1358	-0.005341	-0.041046	0.035248	0.121	0.02182	-0.019684	-1.7259	-0.84335	0.19775	0.021973	0.061646	0.53451	-0.003357	-0.24368	-0.009003	0.059967	-0.003815	0.22263	-0.13763	-0.000916	-0.004578
26.62	-0.014496	-0.37827	-0.15625	-0.000763	-0.005035	0.002899	0.11231	0.024261	0.085144	-0.011597	-0.065765	-0.01297	-0.018005	0.036469	-0.39566	0.037079	-0.0383	-1.7749	-0.80765	0.11993	-0.15823	0.055695	0.2594	0.14358	-0.5127	-0.018463	0.1181	-0.010376	-1.3042	-0.05188	-0.001221	-0.012817
26.621	-0.005493	-0.42602	-0.15518	-0.002747	-0.00824	0.000763	0.16129	0.027771	0.082703	-0.001373	0.00061	-0.006714	-0.011597	-0.014954	-0.40405	0.031891	-0.033112	-1.8169	-0.53696	0.006866	-0.019379	-0.009308	0.11887	0.068207	-0.68375	-0.012817	0.10346	-0.010376	-1.4497	0.020294	-0.001526	-0.006256
26.622	-0.013428	-0.43304	-0.14694	-0.000916	-0.001068	-0.011749	0.17288	0.021515	0.097046	0.015869	-0.054169	-0.010986	-0.029297	0.032959	-0.13947	0.030975	-0.015717	-1.7445	-0.80078	-0.073547	0.061951	-0.006561	0.037842	-0.26291	-0.6807	-0.004578	-0.16876	-0.004883	1.1494	0.068665	-0.004272	-0.009613
26.623	0.005951	-0.41946	-0.18158	0.00351	-0.000458	-0.020447	0.21606	0.011749	0.11948	0.01236	-0.16525	-0.003815	-0.048676	0.049591	0.12299	0.027618	0.005951	-1.6684	-0.76294	-0.041809	0.073242	-0.039978	-0.2385	-0.19577	-0.17227	0.004272	-0.13184	-0.007019	1.7482	0.159	0.000153	-0.016937
26.624	0.003204	-0.39917	-0.15808	0.003204	-0.003204	-0.015411	0.25772	0.007935	0.13733	0.023499	-0.12955	-0.005646	-0.052032	0.055695	0.1503	0.019073	0.002594	-1.4932	-0.49164	0.012817	0.067902	-0.054932	-0.35049	-0.040436	0.12375	-0.019684	-0.045929	-0.004425	0.97229	0.039215	0.003815	-0.013885
26.625	0.001068	-0.41092	-0.15701	-0.003204	0.007629	-0.013885	0.27939	0.002441	0.14877	0.019836	-0.099487	-0.008087	-0.038605	0.095367	0.23163	0.016327	0.009766	-1.3858	-0.95017	0.084991	-0.033112	-0.019684	-0.11047	0.02594	0.056152	-0.012054	0.036774	-0.009155	0.25879	-0.002899	-0.001221	-0.015869
26.626	-0.002289	-0.44449	-0.15488	0.001373	0.005341	-0.001984	0.25864	0.002441	0.14099	0.023804	-0.00412	-0.001526	0.02121	0.045166	0.29694	0.000305	0.022583	-1.2718	-0.84244	-0.022125	-0.076752	-0.032043	0.11322	0.018158	-0.10803	-0.014954	0.036774	0.001221	-0.02655	-0.00946	0.001526	-0.016785
26.627	-0.002747	-0.44357	-0.15656	0.00473	-0.001068	-0.012665	0.28793	0.029144	0.13458	0.00824	0.075531	-0.008392	0.043945	0.046082	-0.024414	-0.006104	0.032959	-1.1169	-0.60104	-0.12619	0.018311	-0.028992	0.079651	0.045624	-0.082397	-0.019226	0.098267	-0.003662	0.021667	0.093689	-0.001373	-0.012817
26.628	0.003662	-0.4451	-0.14938	-0.002136	0.001678	-0.008698	0.30899	0.005951	0.1181	0.014954	0.15305	0.001373	-0.018311	0.11307	0.15472	-0.021515	0.024109	-0.94559	-0.39612	-0.16052	0.028381	-0.087433	-0.12634	0.099182	0.031738	-0.014801	0.11765	0.009308	0.59204	0.003052	0.003357	-0.015106
26.629	-0.005188	-0.47028	-0.16083	-0.000305	-0.007019	0.000305	0.3064	0.021515	0.11276	0.004883	0.064697	-0.012054	-0.033722	0.13336	-0.055847	-0.020447	0.011749	-0.79651	-0.066223	-0.16083	0.085754	-0.10803	-0.20767	0.26016	0.15289	-0.018005	0.14389	0	1.0295	-0.18372	0.003204	-0.016479
26.63	0.001831	-0.4808	-0.15595	0.003357	0.004425	-0.007629	0.2742	0.013885	0.10498	0.016632	-0.059509	-0.014954	-0.001831	0.036621	-0.29511	-0.021515	0.006104	-0.62851	0.04364	-0.09491	0.11856	-0.070801	-0.20416	0.18906	0.1619	-0.007629	0.024414	-0.003967	0.13641	-0.34805	-0.002136	-0.010834
26.631	0.001221	-0.48492	-0.16159	0.017242	-0.001526	-0.030365	0.25192	0.024109	0.099182	0.046387	-0.15182	-0.007172	-0.043945	-0.085907	-0.35736	-0.029449	0.025635	-0.49576	-0.086365	0.11139	0.021973	0.037842	0.015411	-0.052795	0.058746	0.001221	0.11063	-0.004425	-0.71472	-0.22003	-0.000458	-0.009308
26.632	0.003357	-0.49393	-0.14297	0.006714	-0.001678	-0.00824	0.21393	0.02533	0.077667	0.054016	-0.15167	-0.01358	-0.063629	-0.093994	-0.18951	-0.031281	0.013275	-0.33386	0.007477	0.18829	-0.20554	0.11124	-0.079346	-0.066681	-0.007019	0.010071	0.20523	-0.002289	0.44022	-0.18662	0.005493	-0.009155
26.633	0.002594	-0.46631	-0.13443	0.007782	0.002289	-0.00824	0.23224	0.02121	0.063019	0.038757	-0.04425	-0.01358	-0.017242	-0.009766	-0.014343	-0.023651	0.035248	-0.17716	0.67337	0.14786	-0.17716	0.058136	-0.22736	-0.10346	0.11856	-0.005493	0.15778	-0.00412	0.71487	-0.18341	0.000153	-0.001984
26.634	0.003662	-0.45731	-0.091095	0.016479	0.003357	0.009003	0.22049	0.017395	0.05722	0.012817	0.073395	-0.014954	-0.006409	0.039215	0.081024	-0.034485	0.07843	-0.022278	0.96878	0.043793	-0.02121	-0.050354	-0.37705	-0.22873	0.12878	-0.003967	0.15533	-0.007019	-0.27725	-0.21973	0.000458	-0.00412
26.635	0.005951	-0.42602	-0.05722	0.012512	0.000458	0.012512	0.15396	0.013733	0.058289	0.020447	0.086365	-0.012054	-0.020142	0.08316	0.095367	-0.030365	0.072937	0.052338	1.0922	-0.14786	-0.016632	-0.077515	-0.57342	-0.051727	0.19806	0.005035	-0.19272	-0.005341	0.06485	-0.14404	0.010986	-0.009155
26.636	0.003967	-0.41916	-0.089417	-0.003967	0.00412	0.012665	0.070496	0.016327	0.05722	0.031738	0.054932	-0.018768	-0.097046	0.12512	0.13199	-0.024109	0.030823	0.12039	0.87341	-0.17578	-0.25528	-0.040283	-0.25467	0.14786	0.25482	0.002441	-0.42007	-0.012512	-0.25253	-0.1474	0.001068	-0.011139
26.637	0.014038	-0.37735	-0.086517	-0.019226	0.013733	-0.013123	0.037994	0.00824	0.054169	0.03418	0.027771	-0.008087	-0.088196	0.15015	0.27634	-0.023499	0.035706	0.19959	0.32166	-0.20737	-0.42328	-0.016174	0.052032	-0.090942	0.11368	-0.002136	-0.39963	-0.013123	-0.30533	-0.22705	-0.001678	-0.013275
26.638	0.010223	-0.34988	-0.079193	-0.022888	0.008545	-0.007782	0.11292	0.007019	0.029602	0.028381	-0.031433	-0.013275	-0.056	0.053101	0.34943	-0.025482	0.050964	0.2681	0.015869	-0.082855	0.027771	-0.001373	0.30624	-0.1741	0.039825	-0.007477	-0.17273	-0.010986	-0.47012	-0.12878	-0.002594	-0.018921
26.639	0.008545	-0.31937	-0.089111	0.015259	0.007629	-0.013885	0.10193	0.014343	0.02243	0.001984	0.006409	-0.010223	0.006104	0.036011	-0.039215	-0.019836	0.091248	0.26642	-0.25162	0.024261	0.23377	-0.037384	0.29785	-0.073547	0.070648	-0.013733	0.064697	-0.006104	0.009918	-0.002899	-0.001831	-0.015564
26.64	0.015869	-0.28381	-0.049438	0.03952	0.007477	-0.01236	0.046844	0.02121	0.034637	0.030212	0.091705	-0.009308	0.0383	-0.013885	0.003204	-0.030518	0.076904	0.25192	-0.24918	0.12054	-0.000763	-0.10223	0.21561	0.041656	0.072174	-0.01358	-0.083313	-0.009613	-0.25482	0.1088	-0.00061	-0.019684
26.641	-0.028839	-0.20828	-0.039063	0.005341	0.007782	-0.006256	0.082397	0.010529	0.058441	0.051575	0.20996	-0.011902	-0.084229	-0.07019	-0.018311	-0.028839	0.10086	0.14389	-0.62683	0.24979	-0.38666	-0.1059	0.19577	0.1236	0.009613	0.001831	-0.12436	-0.011597	-0.80948	-0.044403	0.003967	-0.011292
26.642	0.04776	-0.16968	-0.09964	-0.019531	0.00351	-0.01236	0.12512	0.013123	0.045624	0.054169	0.17258	-0.02243	-0.10284	-0.051117	-0.1355	-0.026703	0.058441	0.084229	-1.0303	0.16068	-0.52414	-0.037079	0.005493	0.30197	-0.11032	-0.003204	-0.10712	-0.004883	0.070343	0.022888	0.005341	-0.016327
26.643	0.003967	-0.12802	-0.12955	-0.032654	0.000305	-0.019989	0.14481	0.013123	0.038452	0.04303	0.26596	-0.01297	-0.10132	0.038147	0.10391	-0.014343	0.004883	0.1738	-1.1717	0.029297	-0.098572	0.024567	-0.18051	0.34195	-0.21469	-0.01709	-0.089569	-0.011444	-0.55893	0.224	0.00473	-0.012817
26.644	0.019989	-0.064087	-0.12589	-0.023956	-0.007782	0.004272	0.1152	0.00946	0.020599	0.027008	-0.023499	-0.011749	-0.046997	0.09903	0.25513	-0.005646	-0.10391	0.16174	-0.98785	-0.074615	-0.33539	0.18982	-0.18723	0.42587	-0.088196	-0.019226	0.093689	-0.007782	-1.1728	0.24399	0.003967	-0.022278
26.645	0.001221	0.013428	-0.091248	-0.005188	0.004425	0.009308	0.043335	0.00351	0.024567	-0.0177	-0.39352	-0.014191	0.056458	0.12619	0.23621	-0.014343	-0.10498	0.3006	-0.41	-0.10361	0.096741	0.053253	-0.090027	0.39124	0.02594	-0.01297	0.34439	-0.010834	-0.46722	0.2681	0.00412	-0.016327
26.646	0.010071	0.053406	-0.087128	0.014191	0.015259	-0.002136	-0.028534	-0.003052	0.014038	-0.033417	-0.31418	-0.016327	0.093384	0.12039	0.045319	-0.005341	-0.096893	0.4155	0.055389	-0.036469	0.29358	0.013275	0.054626	0.2298	0.03952	-0.007019	0.62286	-0.009613	-0.30243	0.23193	0.00412	-0.018311
26.647	0.004272	0.049591	-0.10834	0.019684	0	-0.009766	-0.000763	-0.001373	0.009308	-0.024414	-0.22308	-0.01297	0.084839	0.11627	-0.11383	-0.012665	-0.093689	0.46722	0.95291	-0.000153	0.54596	0.06424	0.082092	-0.21347	0.00412	0.000153	0.74188	-0.010376	0.46845	0.007782	0.002136	-0.020294
26.648	0.007477	0.089111	-0.098572	0.019531	0.002747	0.011292	0.016632	0.002136	0.00885	0.001373	0.060883	-0.008392	-0.024872	0.14862	-0.091248	-0.012207	-0.068207	0.46783	0.73349	-0.016327	0.31143	0.045471	0.088959	0.039978	0.14954	0.00824	0.2713	-0.007629	0.52628	-0.14938	0.004883	-0.001984
